<svg width="400" height="400" viewBox="0 0 400 400" fill="none" xmlns="http://www.w3.org/2000/svg">
<rect width="400" height="400" fill="#B6B6B6"/>
<path d="M240 233V236.333C240 241.856 235.523 246.333 230 246.333H150C144.477 246.333 140 241.856 140 236.333V183C140 177.477 144.477 173 150 173H153.333V216.333C153.333 225.523 160.81 233 170 233H240ZM260 216.333V163C260 157.477 255.523 153 250 153H170C164.477 153 160 157.477 160 163V216.333C160 221.856 164.477 226.333 170 226.333H250C255.523 226.333 260 221.856 260 216.333ZM193.333 173C193.333 178.523 188.856 183 183.333 183C177.81 183 173.333 178.523 173.333 173C173.333 167.477 177.81 163 183.333 163C188.856 163 193.333 167.477 193.333 173ZM173.333 203L184.899 191.434C185.875 190.458 187.458 190.458 188.435 191.434L196.667 199.667L224.899 171.434C225.875 170.458 227.458 170.458 228.435 171.434L246.667 189.667V213H173.333V203Z" fill="white"/>
</svg>
