<svg width="150" height="150" viewBox="0 0 150 150" fill="none" xmlns="http://www.w3.org/2000/svg">
<g clip-path="url(#clip0_24_24)">
<rect width="150" height="150" rx="75" fill="#0180C7"/>
<path d="M27 29H107C114.732 29 121 35.268 121 43V117H27V29Z" fill="white"/>
<path d="M47.9359 128.908C41.5681 128.908 35.1817 129.121 28.8138 128.88C21.2873 128.583 15.5312 122.271 15.5312 114.735C15.5312 90.4131 15.5776 66.1004 15.5312 41.7598C15.5312 33.4362 22.0381 27.6338 29.5183 27.4206C37.3506 27.2074 45.2108 27.3742 53.071 27.3742C53.21 27.3742 53.3954 27.3001 53.4695 27.5411C53.4232 27.9582 53.0061 28.0045 52.7466 28.1714C48.1306 30.8779 43.9131 34.1128 40.3631 38.1263C34.5143 44.7445 30.4544 52.3451 29.0826 61.1878C26.6541 76.7876 31.5297 90.0331 42.5599 101.082C44.5156 103.065 44.7752 104.604 43.2087 107.264C41.3178 110.462 38.4537 112.631 35.3949 114.605C35.0704 114.791 34.746 115.023 34.4123 115.236C33.9211 115.653 34.227 115.866 34.6441 116.051C34.7368 116.265 34.8573 116.45 34.9963 116.635C37.6751 119.017 40.2148 121.557 42.8565 123.976C44.0892 125.117 45.3313 126.303 46.5177 127.499C47.009 127.934 47.8247 128.073 47.9359 128.908Z" fill="#0180C7"/>
<path d="M47.339 128.833C47.2185 128.018 46.4028 127.879 45.9208 127.387C44.7344 126.173 43.4923 125.005 42.2595 123.865C39.6271 121.437 37.0874 118.897 34.3994 116.524C34.2603 116.339 34.1398 116.153 34.0472 115.94C39.9886 117.108 45.8003 116.311 51.5101 114.568C53.4473 113.984 55.3845 113.4 57.3403 112.909C58.6658 112.557 60.0654 112.631 61.3538 113.095C76.138 118.174 90.7275 117.711 105.095 111.417C110.943 108.831 116.282 105.188 120.806 100.646C121.037 100.414 121.204 100.062 121.621 100.044C121.834 100.368 121.714 100.72 121.714 101.073V114.707C121.76 122.493 115.513 128.833 107.727 128.908H107.606C99.218 128.954 90.8202 128.908 82.4224 128.908H48.7386C48.2752 128.861 47.8117 128.833 47.339 128.833Z" fill="#0180C7"/>
<path d="M49.5787 76.732C53.1009 76.732 56.41 76.7134 59.7005 76.732C61.545 76.7598 62.5461 77.5291 62.7315 78.9936C62.9446 80.8382 61.8694 82.071 59.8673 82.0988C56.0855 82.1451 52.3316 82.1266 48.5591 82.1266C47.4653 82.1266 46.3901 82.1729 45.2963 82.0988C43.9431 82.0246 42.6176 81.7465 41.9595 80.3469C41.3106 78.9473 41.7741 77.6867 42.6547 76.5466C46.2418 71.9769 49.8567 67.3795 53.4717 62.8098C53.6849 62.5318 53.8888 62.2537 54.102 61.9942C53.8702 61.5956 53.5458 61.781 53.2585 61.7624C50.7373 61.7346 48.1976 61.7624 45.6764 61.7346C45.0924 61.7346 44.5085 61.6605 43.9523 61.5492C42.6269 61.2434 41.8112 59.9179 42.1078 58.611C42.321 57.7211 43.0162 56.9981 43.906 56.7942C44.4621 56.6552 45.0461 56.581 45.63 56.581C49.7826 56.5625 53.9537 56.5625 58.1062 56.581C58.8477 56.5625 59.5707 56.6552 60.2937 56.8406C61.8787 57.3782 62.5553 58.8427 61.9251 60.3813C61.3689 61.7068 60.4791 62.8562 59.5892 63.9963C56.5305 67.8893 53.4809 71.7638 50.4221 75.6104C50.1811 75.9163 49.9494 76.2222 49.5787 76.732Z" fill="#0180C7"/>
<path d="M76.6258 64.469C77.1819 63.746 77.7659 63.0694 78.7206 62.884C80.5651 62.5132 82.2892 63.6997 82.3077 65.5628C82.3819 70.2251 82.3541 74.8874 82.3077 79.5498C82.3077 80.764 81.5199 81.83 80.3705 82.1822C79.2026 82.6271 77.8771 82.2749 77.1078 81.2738C76.7092 80.7826 76.5516 80.6899 75.9862 81.1348C73.8636 82.8588 71.4629 83.1647 68.8768 82.3212C64.7243 80.968 63.0281 77.7238 62.5553 73.7844C62.0641 69.5207 63.4915 65.8779 67.3104 63.6441C70.4897 61.7624 73.706 61.9293 76.6258 64.469ZM68.367 72.978C68.4134 74.0069 68.7378 74.9801 69.3496 75.7958C70.6102 77.4735 73.0109 77.8257 74.7164 76.5651C74.9944 76.352 75.254 76.1017 75.4857 75.7958C76.7926 74.0254 76.7926 71.1057 75.4857 69.3353C74.8276 68.4269 73.808 67.8893 72.7142 67.8708C70.1374 67.7132 68.3485 69.6875 68.367 72.978ZM92.7818 73.1171C92.5964 67.1292 96.5357 62.6523 102.134 62.4854C108.076 62.3001 112.414 66.2858 112.599 72.116C112.784 78.0111 109.169 82.1915 103.599 82.7476C97.509 83.3501 92.6891 78.9473 92.7818 73.1171ZM98.6306 72.5609C98.5842 73.7288 98.9364 74.8689 99.6316 75.8236C100.911 77.5013 103.311 77.8257 104.998 76.5188C105.258 76.3334 105.462 76.1017 105.675 75.87C107.028 74.0996 107.028 71.1149 105.703 69.3445C105.045 68.4547 104.025 67.8986 102.931 67.88C100.401 67.7317 98.6306 69.6412 98.6306 72.5609ZM90.724 68.4825C90.724 72.0975 90.7519 75.7124 90.724 79.3273C90.7519 80.9865 89.4449 82.3583 87.7857 82.4047C87.5077 82.4047 87.2018 82.3769 86.9237 82.312C85.7558 82.0061 84.8753 80.7733 84.8753 79.2995V60.7614C84.8753 59.6676 84.8474 58.5924 84.8753 57.4987C84.9031 55.7005 86.0432 54.5418 87.7672 54.5418C89.5376 54.5233 90.724 55.6819 90.724 57.545C90.7519 61.1785 90.724 64.8398 90.724 68.4825Z" fill="#0180C7"/>
</g>
<defs>
<clipPath id="clip0_24_24">
<rect width="150" height="150" fill="white"/>
</clipPath>
</defs>
</svg>
