<?xml version="1.0" encoding="iso-8859-1"?>
<!-- Uploaded to: SVG Repo, www.svgrepo.com, Generator: SVG Repo Mixer Tools -->
<svg height="800px" width="800px" version="1.1" id="Layer_1" xmlns="http://www.w3.org/2000/svg" xmlns:xlink="http://www.w3.org/1999/xlink" 
	 viewBox="0 0 512 512" xml:space="preserve">
<g>
	<g>
		<polygon style="fill:#434C6D;" points="256,88.276 0,194.207 0,238.345 256,132.414 512,238.345 512,194.207 		"/>
		<polygon style="fill:#434C6D;" points="308.966,61.793 432.552,61.793 432.552,26.483 308.966,26.483 		"/>
	</g>
	<g>
		<polygon style="fill:#E8EDEE;" points="414.897,154.026 414.897,61.796 326.621,61.796 326.621,117.498 		"/>
		<polygon style="fill:#E8EDEE;" points="256,132.414 26.483,227.39 26.483,485.517 485.517,485.517 485.517,227.39 		"/>
	</g>
	<g>
		<polygon style="fill:#899ABF;" points="203.034,256 308.966,256 308.966,185.379 203.034,185.379 		"/>
		<polygon style="fill:#899ABF;" points="61.793,388.414 167.724,388.414 167.724,282.483 61.793,282.483 		"/>
		<polygon style="fill:#899ABF;" points="344.276,388.414 450.207,388.414 450.207,282.483 344.276,282.483 		"/>
	</g>
	<g>
		<path style="fill:#B0BAC1;" d="M26.483,450.207h176.552c4.873,0,8.828-3.955,8.828-8.828s-3.955-8.828-8.828-8.828H26.483V450.207
			z"/>
		<path style="fill:#B0BAC1;" d="M485.517,432.552H308.966c-4.873,0-8.828,3.955-8.828,8.828s3.955,8.828,8.828,8.828h176.552
			V432.552z"/>
	</g>
	<polygon style="fill:#26B99A;" points="203.034,485.517 308.966,485.517 308.966,326.621 203.034,326.621 	"/>
	<path style="fill:#198C71;" d="M282.483,414.897h-8.828c-4.873,0-8.828-3.955-8.828-8.828s3.955-8.828,8.828-8.828h8.828
		c4.873,0,8.828,3.955,8.828,8.828S287.356,414.897,282.483,414.897"/>
	<g>
		<polygon style="fill:#434C6D;" points="105.931,388.414 123.586,388.414 123.586,282.483 105.931,282.483 		"/>
		<polygon style="fill:#434C6D;" points="61.793,344.276 167.724,344.276 167.724,326.621 61.793,326.621 		"/>
	</g>
	<path style="fill:#B0BAC1;" d="M176.552,397.241H52.966c-4.873,0-8.828-3.955-8.828-8.828s3.955-8.828,8.828-8.828h123.586
		c4.873,0,8.828,3.955,8.828,8.828S181.425,397.241,176.552,397.241"/>
	<g>
		<polygon style="fill:#434C6D;" points="388.414,388.414 406.069,388.414 406.069,282.483 388.414,282.483 		"/>
		<polygon style="fill:#434C6D;" points="344.276,344.276 450.207,344.276 450.207,326.621 344.276,326.621 		"/>
	</g>
	<path style="fill:#B0BAC1;" d="M459.034,397.241H335.448c-4.873,0-8.828-3.955-8.828-8.828s3.955-8.828,8.828-8.828h123.586
		c4.873,0,8.828,3.955,8.828,8.828S463.907,397.241,459.034,397.241"/>
	<g>
		<polygon style="fill:#434C6D;" points="203.034,229.517 308.966,229.517 308.966,211.862 203.034,211.862 		"/>
		<polygon style="fill:#434C6D;" points="247.172,256 264.828,256 264.828,185.379 247.172,185.379 		"/>
	</g>
	<path style="fill:#B0BAC1;" d="M317.793,264.828H194.207c-4.873,0-8.828-3.955-8.828-8.828s3.955-8.828,8.828-8.828h123.586
		c4.873,0,8.828,3.955,8.828,8.828S322.666,264.828,317.793,264.828"/>
</g>
</svg>