<?xml version="1.0" encoding="iso-8859-1"?>
<!-- Uploaded to: SVG Repo, www.svgrepo.com, Generator: SVG Repo Mixer Tools -->
<svg version="1.1" id="Layer_1" xmlns="http://www.w3.org/2000/svg" xmlns:xlink="http://www.w3.org/1999/xlink" 
	 viewBox="0 0 512 512" xml:space="preserve">
<rect x="361.93" y="46.885" style="fill:#5B5D6E;" width="52.966" height="70.62"/>
<polygon style="fill:#FF6464;" points="494.345,170.472 256,46.885 17.655,170.472 17.655,479.437 494.345,479.437 "/>
<g>
	<polygon style="fill:#E4EAF6;" points="494.345,170.472 476.69,161.316 476.69,479.437 494.345,479.437 	"/>
	<polygon style="fill:#E4EAF6;" points="17.655,170.472 17.655,479.437 35.31,479.437 35.31,161.316 	"/>
</g>
<rect x="105.93" y="232.26" style="fill:#B4E1FA;" width="105.93" height="141.24"/>
<g>
	<rect x="105.93" y="232.26" style="fill:#A0D2F0;" width="105.93" height="26.483"/>
	<polygon style="fill:#A0D2F0;" points="114.759,232.265 105.931,232.265 105.931,295.038 150.069,373.506 194.207,373.506 	"/>
</g>
<polygon style="fill:#DAF0FD;" points="211.862,310.732 167.724,232.265 141.241,232.265 211.862,357.813 "/>
<polygon style="fill:#B4E1FA;" points="182.621,258.747 167.724,232.265 141.241,232.265 156.138,258.747 "/>
<path style="fill:#FFFFFF;" d="M220.69,364.678V232.265c0-4.875-3.948-8.828-8.828-8.828H105.931c-4.879,0-8.828,3.953-8.828,8.828
	v132.414c-4.875,0-8.828,3.953-8.828,8.828s3.953,8.828,8.828,8.828H220.69c4.875,0,8.828-3.953,8.828-8.828
	S225.565,364.678,220.69,364.678z M158.897,241.092h44.138v52.965h-88.276v-52.966L158.897,241.092L158.897,241.092z
	 M114.759,364.678v-52.966h88.276v52.966H114.759z"/>
<polygon style="fill:#C7CFE2;" points="17.655,170.472 17.655,202.144 35.31,192.941 256,78.792 476.69,193.013 494.345,202.144 
	494.345,170.472 256,46.885 "/>
<path style="fill:#707487;" d="M243.833,26.696L6.91,149.242C2.665,151.437,0,155.817,0,160.596v13.644
	c0,6.334,6.709,10.417,12.334,7.507L256,55.713l243.666,126.034c5.625,2.91,12.334-1.173,12.334-7.507v-13.644
	c0-4.779-2.665-9.158-6.91-11.353L268.167,26.696C260.536,22.749,251.464,22.749,243.833,26.696z"/>
<rect x="17.655" y="426.47" style="fill:#C7CFE2;" width="476.69" height="44.14"/>
<rect x="282.48" y="232.26" style="fill:#E4EAF6;" width="141.24" height="247.17"/>
<rect x="317.79" y="267.57" style="fill:#B4E1FA;" width="70.62" height="105.93"/>
<g>
	<rect x="317.79" y="267.57" style="fill:#A0D2F0;" width="70.62" height="26.483"/>
	<polygon style="fill:#A0D2F0;" points="317.793,373.506 377.379,373.506 317.793,267.575 	"/>
</g>
<polygon style="fill:#DAF0FD;" points="388.414,267.575 344.276,267.575 388.414,346.042 "/>
<polygon style="fill:#B4E1FA;" points="359.172,294.058 388.414,294.058 388.414,267.575 344.276,267.575 "/>
<g>
	<path style="fill:#FFFFFF;" d="M423.724,488.265H282.483c-4.875,0-8.828-3.953-8.828-8.828V232.265
		c0-4.875,3.953-8.828,8.828-8.828h141.241c4.875,0,8.828,3.953,8.828,8.828v247.172
		C432.552,484.312,428.599,488.265,423.724,488.265z M291.31,470.61h123.586V241.092H291.31V470.61z"/>
	<path style="fill:#FFFFFF;" d="M388.414,382.334h-70.621c-4.879,0-8.828-3.953-8.828-8.828V267.575
		c0-4.875,3.948-8.828,8.828-8.828h70.621c4.879,0,8.828,3.953,8.828,8.828v105.931
		C397.241,378.381,393.293,382.334,388.414,382.334z M326.621,364.678h52.966v-88.276h-52.966V364.678z"/>
</g>
<path style="fill:#8F96AC;" d="M507.586,488.265H4.414c-2.438,0-4.414-1.976-4.414-4.414v-8.828c0-2.438,1.976-4.414,4.414-4.414
	h503.172c2.438,0,4.414,1.976,4.414,4.414v8.828C512,486.288,510.024,488.265,507.586,488.265z"/>
<path style="fill:#6F7589;" d="M419.31,55.713h-61.793c-2.438,0-4.414-1.976-4.414-4.414v-8.828c0-2.438,1.976-4.414,4.414-4.414
	h61.793c2.438,0,4.414,1.976,4.414,4.414v8.828C423.724,53.737,421.748,55.713,419.31,55.713z"/>
</svg>