<?xml version="1.0" encoding="iso-8859-1"?>
<!-- Uploaded to: SVG Repo, www.svgrepo.com, Generator: SVG Repo Mixer Tools -->
<svg height="800px" width="800px" version="1.1" id="Layer_1" xmlns="http://www.w3.org/2000/svg" xmlns:xlink="http://www.w3.org/1999/xlink" 
	 viewBox="0 0 512 512" xml:space="preserve">
<g>
	<polygon style="fill:#7281A4;" points="158.897,167.724 0,229.517 0,273.655 158.897,211.862 317.793,273.655 317.793,229.517 	"/>
	<polygon style="fill:#D6D0C7;" points="158.897,211.862 26.483,263.353 26.483,512 291.31,512 291.31,263.353 	"/>
	<polygon style="fill:#7281A4;" points="379.586,0 247.172,61.793 247.172,105.931 379.586,44.138 512,105.931 512,61.793 	"/>
	<polygon style="fill:#ADAAA6;" points="379.586,44.138 264.828,97.695 264.828,208.922 317.793,229.517 317.793,273.655 
		291.31,263.353 291.31,512 494.345,512 494.345,97.695 	"/>
	<polygon style="fill:#9E9086;" points="105.931,512 211.862,512 211.862,388.414 105.931,388.414 	"/>
	<path style="fill:#D6D0C7;" d="M185.379,459.034h-8.828c-4.873,0-8.828-3.955-8.828-8.828c0-4.873,3.955-8.828,8.828-8.828h8.828
		c4.873,0,8.828,3.955,8.828,8.828C194.207,455.08,190.252,459.034,185.379,459.034"/>
	<g>
		<polygon style="fill:#ADAAA6;" points="26.483,485.517 105.931,485.517 105.931,467.862 26.483,467.862 		"/>
		<polygon style="fill:#ADAAA6;" points="211.862,485.517 291.31,485.517 291.31,467.862 211.862,467.862 		"/>
	</g>
	<polygon style="fill:#28BAE8;" points="105.931,344.276 211.862,344.276 211.862,273.655 105.931,273.655 	"/>
	<g>
		<polygon style="fill:#1E94AF;" points="150.069,344.276 167.724,344.276 167.724,273.655 150.069,273.655 		"/>
		<polygon style="fill:#1E94AF;" points="105.931,317.793 211.862,317.793 211.862,300.138 105.931,300.138 		"/>
	</g>
	<polygon style="fill:#28BAE8;" points="326.621,194.207 432.552,194.207 432.552,105.931 326.621,105.931 	"/>
	<g>
		<polygon style="fill:#1E94AF;" points="370.759,194.207 388.414,194.207 388.414,105.931 370.759,105.931 		"/>
		<polygon style="fill:#1E94AF;" points="326.621,158.897 432.552,158.897 432.552,141.241 326.621,141.241 		"/>
	</g>
	<g>
		<path style="fill:#9E9086;" d="M441.379,203.034H317.793c-4.873,0-8.828-3.955-8.828-8.828s3.955-8.828,8.828-8.828h123.586
			c4.873,0,8.828,3.955,8.828,8.828S446.252,203.034,441.379,203.034"/>
		<polygon style="fill:#9E9086;" points="291.31,512 467.862,512 467.862,335.448 291.31,335.448 		"/>
	</g>
	<g>
		<polygon style="fill:#7C6C62;" points="291.31,379.586 467.862,379.586 467.862,361.931 291.31,361.931 		"/>
		<polygon style="fill:#7C6C62;" points="291.31,414.897 467.862,414.897 467.862,397.241 291.31,397.241 		"/>
		<polygon style="fill:#7C6C62;" points="291.31,450.207 467.862,450.207 467.862,432.552 291.31,432.552 		"/>
		<polygon style="fill:#7C6C62;" points="291.31,485.517 467.862,485.517 467.862,467.862 291.31,467.862 		"/>
	</g>
	<path style="fill:#ADAAA6;" d="M220.69,353.103H97.103c-4.873,0-8.828-3.955-8.828-8.828c0-4.873,3.955-8.828,8.828-8.828H220.69
		c4.873,0,8.828,3.955,8.828,8.828C229.517,349.149,225.562,353.103,220.69,353.103"/>
</g>
</svg>