<svg width="118" height="118" viewBox="0 0 118 118" fill="none" xmlns="http://www.w3.org/2000/svg">
<g clip-path="url(#clip0_21_21)">
<path d="M35.7539 112.635C29.0449 112.635 22.3164 112.859 15.6074 112.605C7.67774 112.293 1.61328 105.643 1.61328 97.7031C1.61328 72.0781 1.66211 46.4629 1.61328 20.8184C1.61328 12.0488 8.46875 5.93556 16.3496 5.71095C24.6016 5.48634 32.8828 5.66212 41.1641 5.66212C41.3105 5.66212 41.5059 5.584 41.584 5.83791C41.5352 6.27736 41.0957 6.32619 40.8223 6.50197C35.959 9.35353 31.5156 12.7617 27.7754 16.9903C21.6133 23.9629 17.3359 31.9707 15.8906 41.2871C13.332 57.7227 18.4688 71.6777 30.0898 83.3184C32.1504 85.4082 32.4238 87.0293 30.7734 89.832C28.7813 93.2012 25.7637 95.4863 22.541 97.5664C22.1992 97.7617 21.8574 98.0059 21.5059 98.2305C20.9883 98.6699 21.3105 98.8945 21.75 99.0899C21.8477 99.3145 21.9746 99.5098 22.1211 99.7051C24.9434 102.215 27.6191 104.891 30.4023 107.439C31.7012 108.641 33.0098 109.891 34.2598 111.15C34.7773 111.609 35.6367 111.756 35.7539 112.635Z" fill="#0180C7"/>
<path d="M35.7539 112.635C35.627 111.775 34.7676 111.629 34.2598 111.111C33.0098 109.832 31.7012 108.602 30.4023 107.4C27.6289 104.842 24.9531 102.166 22.1211 99.666C21.9746 99.4707 21.8477 99.2754 21.75 99.0508C28.0098 100.281 34.1328 99.4414 40.1484 97.6055C42.1895 96.9902 44.2305 96.375 46.291 95.8574C47.6875 95.4863 49.1621 95.5644 50.5195 96.0527C66.0957 101.404 81.4668 100.916 96.6035 94.2852C102.766 91.5605 108.391 87.7227 113.156 82.9375C113.4 82.6934 113.576 82.3223 114.016 82.3027C114.24 82.6445 114.113 83.0156 114.113 83.3867V97.752C114.162 105.955 107.58 112.635 99.377 112.713H99.25C90.4121 112.762 81.5645 112.713 72.7168 112.713H37.2285C36.7402 112.664 36.252 112.635 35.7539 112.635Z" fill="#0172B1"/>
<path d="M39.5918 57.6641C43.3027 57.6641 46.7891 57.6445 50.2559 57.6641C52.1992 57.6934 53.2539 58.5039 53.4492 60.0469C53.6738 61.9902 52.541 63.2891 50.4316 63.3184C46.4473 63.3672 42.4922 63.3477 38.5176 63.3477C37.3652 63.3477 36.2324 63.3965 35.0801 63.3184C33.6543 63.2402 32.2578 62.9473 31.5644 61.4727C30.8809 59.998 31.3691 58.6699 32.2969 57.4688C36.0762 52.6543 39.8848 47.8105 43.6934 42.9961C43.918 42.7031 44.1328 42.4102 44.3574 42.1367C44.1133 41.7168 43.7715 41.9121 43.4687 41.8926C40.8125 41.8633 38.1367 41.8926 35.4805 41.8633C34.8652 41.8633 34.25 41.7852 33.6641 41.668C32.2676 41.3457 31.4082 39.9492 31.7207 38.5723C31.9453 37.6348 32.6777 36.8731 33.6152 36.6582C34.2012 36.5117 34.8164 36.4336 35.4316 36.4336C39.8066 36.4141 44.2012 36.4141 48.5762 36.4336C49.3574 36.4141 50.1191 36.5117 50.8809 36.707C52.5508 37.2734 53.2637 38.8164 52.5996 40.4375C52.0137 41.834 51.0762 43.0449 50.1387 44.2461C46.916 48.3477 43.7031 52.4297 40.4805 56.4824C40.2266 56.8047 39.9824 57.127 39.5918 57.6641Z" fill="#0180C7"/>
<path d="M68.0879 44.7441C68.6738 43.9824 69.2891 43.2695 70.2949 43.0742C72.2383 42.6836 74.0547 43.9336 74.0742 45.8965C74.1524 50.8086 74.1231 55.7207 74.0742 60.6328C74.0742 61.9121 73.2441 63.0351 72.0332 63.4062C70.8027 63.875 69.4063 63.5039 68.5957 62.4492C68.1758 61.9316 68.0098 61.834 67.4141 62.3027C65.1777 64.1191 62.6484 64.4414 59.9238 63.5527C55.5488 62.1269 53.7617 58.709 53.2637 54.5586C52.7461 50.0664 54.25 46.2285 58.2734 43.875C61.6231 41.8926 65.0117 42.0683 68.0879 44.7441ZM59.3867 53.709C59.4356 54.793 59.7774 55.8183 60.4219 56.6777C61.75 58.4453 64.2793 58.8164 66.0762 57.4883C66.3692 57.2637 66.6426 57 66.8867 56.6777C68.2637 54.8125 68.2637 51.7363 66.8867 49.8711C66.1934 48.914 65.1192 48.3476 63.9668 48.3281C61.252 48.1621 59.3672 50.2422 59.3867 53.709ZM85.1094 53.8555C84.9141 47.5469 89.0645 42.8301 94.9629 42.6543C101.223 42.459 105.793 46.6582 105.988 52.8008C106.184 59.0117 102.375 63.416 96.5059 64.0019C90.0899 64.6367 85.0117 59.998 85.1094 53.8555ZM91.2715 53.2695C91.2227 54.5 91.5938 55.7012 92.3262 56.707C93.6738 58.4746 96.2031 58.8164 97.9805 57.4394C98.2539 57.2441 98.4688 57 98.6934 56.7558C100.119 54.8906 100.119 51.7461 98.7227 49.8808C98.0293 48.9433 96.9551 48.3574 95.8028 48.3379C93.1367 48.1816 91.2715 50.1933 91.2715 53.2695ZM82.9414 48.9726C82.9414 52.7812 82.9707 56.5898 82.9414 60.3984C82.9707 62.1465 81.5938 63.5918 79.8457 63.6406C79.5527 63.6406 79.2305 63.6113 78.9375 63.543C77.707 63.2207 76.7793 61.9219 76.7793 60.3691V40.8379C76.7793 39.6855 76.75 38.5527 76.7793 37.4004C76.8086 35.5058 78.0098 34.2851 79.8262 34.2851C81.6914 34.2656 82.9414 35.4863 82.9414 37.4492C82.9707 41.2773 82.9414 45.1348 82.9414 48.9726Z" fill="#0180C7"/>
<path d="M19.377 0H98.623C103.971 0 108.811 2.28753 112.325 5.98199C115.83 9.67645 118 14.788 118 20.4258V97.5742C118 103.212 115.83 108.324 112.325 112.018C108.82 115.712 103.971 118 98.623 118H19.377C14.0286 118 9.18919 115.712 5.67483 112.018C2.17007 108.313 0 103.202 0 97.5641V20.4157C0 14.7778 2.17007 9.67645 5.67483 5.98199C9.17959 2.28753 14.019 0 19.377 0ZM98.623 7.74318H19.377C16.0547 7.74318 13.0492 9.16023 10.8696 11.4579C8.68988 13.7555 7.34559 16.9237 7.34559 20.4258V97.5742C7.34559 101.076 8.68988 104.244 10.8696 106.542C13.0492 108.84 16.0547 110.257 19.377 110.257H98.623C101.945 110.257 104.951 108.84 107.13 106.542C109.31 104.244 110.654 101.076 110.654 97.5742V20.4157C110.654 16.9135 109.31 13.7454 107.13 11.4478C104.941 9.16023 101.936 7.74318 98.623 7.74318Z" fill="#0180C7"/>
</g>
<defs>
<clipPath id="clip0_21_21">
<rect width="118" height="118" fill="white"/>
</clipPath>
</defs>
</svg>
